<?xml version="1.0" encoding="utf-8"?>
<!-- Generator: Adobe Illustrator 25.4.1, SVG Export Plug-In . SVG Version: 6.00 Build 0)  -->
<svg version="1.1" id="Calque_1" xmlns="http://www.w3.org/2000/svg" xmlns:xlink="http://www.w3.org/1999/xlink" x="0px" y="0px"
	 viewBox="0 0 700 700" style="enable-background:new 0 0 700 700;" xml:space="preserve">
<g>
	<path d="M286.8,15.8h-45.4c-9.2,0-18.1,3.7-24.6,10.2c-6.5,6.5-10.2,15.4-10.2,24.6v220.4c-4.1-5.4-8.9-10.3-14.2-14.6
		c-23.5-18.4-54.9-23-82.7-12.1l-4.7,1.9l-0.7,5v0c-2.6,17.9,0.7,36.1,9.4,52c-7.7,2.1-15,5.3-21.7,9.5l-4.3,2.7l0.2,5.1h0
		c1,24,12.2,46.5,30.8,61.7c-11.7,19.4-14.9,42.7-9.1,64.6l1.3,4.9l4.9,1.3v0c7,1.9,14.3,2.8,21.5,2.8c22.2,0,43.4-8.8,59.1-24.4
		c3.8-3.8,7.2-8,10.2-12.5v96.6c0,9.2,3.7,18.1,10.2,24.6c6.5,6.5,15.4,10.2,24.6,10.2h45.4h0c9.2,0,18.1-3.7,24.6-10.2
		c6.5-6.5,10.2-15.4,10.2-24.6V50.5c0-9.2-3.7-18.1-10.2-24.6C304.9,19.4,296,15.8,286.8,15.8L286.8,15.8z M184.1,419
		c-15.4,15.3-37.4,22.1-58.8,18.2c-2.9-15.6,0-31.8,8.1-45.5c20.3,10.4,44,11.9,65.5,4.4C195.6,404.7,190.6,412.5,184.1,419
		L184.1,419z M144.5,377.6c-1.3-0.5-2.7-1.2-3.9-1.8c-4-2.1-7.8-4.7-11.3-7.6c-13.1-10.8-21.5-26.3-23.4-43.1
		c5.8-3.1,12.1-5.2,18.6-6.4c9.2-1.8,18.7-1.5,27.8,0.8h0.1c5.2,1.3,10.2,3.2,15,5.7c1.4,0.7,2.7,1.4,3.9,2.3
		c6.2,3.9,11.7,8.8,16.4,14.4c1.2,1.6,2.4,3.1,3.6,4.9v0c2.7,4.1,5,8.4,6.7,12.9c2.1,5.2,3.5,10.6,4.1,16.2
		C184.1,385.1,162.9,385.8,144.5,377.6L144.5,377.6z M206.5,326.3c-2.5,0.8-5,1.4-7.6,1.8c-6.6-7.6-14.6-13.9-23.4-18.6
		c-13.3-7-28.2-10.3-43.2-9.5c-8.1-12.1-12-26.6-11.1-41.1c20.8-6.5,43.4-2.3,60.4,11.2C198.6,283.6,208,304.6,206.5,326.3
		L206.5,326.3z M304.1,232.6H282c-4.8,0-8.8,3.9-8.8,8.8s3.9,8.8,8.8,8.8h22.1v59.9H282c-4.8,0-8.8,3.9-8.8,8.8s3.9,8.8,8.8,8.8
		h22.1v67.8h-24.3c-4.8,0-8.8,3.9-8.8,8.8s3.9,8.8,8.8,8.8h24.3v102.7c0,4.6-1.8,9-5.1,12.2c-3.2,3.2-7.6,5.1-12.2,5.1h-45.4
		c-4.6,0-9-1.8-12.2-5.1c-3.2-3.2-5.1-7.6-5.1-12.2v-71.6h22.1c4.8,0,8.8-3.9,8.8-8.8s-3.9-8.8-8.8-8.8h-22.1v-37.8H266
		c4.8,0,8.8-3.9,8.8-8.8s-3.9-8.8-8.8-8.8h-41.9v-6.3h22.1c4.8,0,8.8-3.9,8.8-8.8s-3.9-8.8-8.8-8.8h-22.1v-51.3h22.1
		c4.8,0,8.8-3.9,8.8-8.8s-3.9-8.8-8.8-8.8h-22.1v-52.9h11c4.8,0,8.8-3.9,8.8-8.8c0-4.8-3.9-8.8-8.8-8.8h-11v-5.2h22.1
		c4.8,0,8.8-3.9,8.8-8.8s-3.9-8.8-8.8-8.8h-22.1v-57h22.1c4.8,0,8.8-3.9,8.8-8.8s-3.9-8.8-8.8-8.8h-22.1V50.5c0-4.6,1.8-9,5.1-12.2
		c3.2-3.2,7.6-5.1,12.2-5.1h45.4h0c4.6,0,9,1.8,12.2,5.1c3.2,3.2,5.1,7.6,5.1,12.2L304.1,232.6z M612,126.1l0.9-5l-3.9-3.2v0
		c-6.7-5.5-14.3-9.9-22.5-13c4.4-14.7,4.7-30.4,0.7-45.2l-1.3-4.9l-4.9-1.3c-28.8-7.7-59.6,0.6-80.7,21.6c-3.5,3.5-6.6,7.4-9.4,11.4
		V47.6c0-9.2-3.7-18.1-10.2-24.6c-6.5-6.5-15.4-10.2-24.6-10.2h-45.4c-9.2,0-18.1,3.7-24.6,10.2c-6.5,6.5-10.2,15.4-10.2,24.6v464.9
		c0,9.2,3.7,18.1,10.2,24.6c6.5,6.5,15.4,10.2,24.6,10.2h45.4c9.2,0,18.1-3.7,24.6-10.2c6.5-6.5,10.2-15.4,10.2-24.6V226.2
		c11.6,16.6,28.8,28.4,48.5,33.2c19.7,4.8,40.4,2.4,58.4-6.9l4.5-2.3l0.3-5.1h0c1.1-24-8.2-47.2-25.5-63.9
		C595.6,168.4,608.2,148.5,612,126.1L612,126.1z M473.4,169.3l-0.7,4.5l0.7,0.6v55.2l-22.1,0c-4.8,0-8.8,3.9-8.8,8.8
		s3.9,8.8,8.8,8.8h22.1l0,59.9h-22.1c-4.8,0-8.8,3.9-8.8,8.8s3.9,8.8,8.8,8.8h22.1l0,67.8h-24.3c-4.8,0-8.8,3.9-8.8,8.8
		s3.9,8.8,8.8,8.8h24.3v102.7c0,4.6-1.8,9-5.1,12.2c-3.2,3.2-7.6,5.1-12.2,5.1h-45.4c-4.6,0-9-1.8-12.2-5.1
		c-3.2-3.2-5.1-7.6-5.1-12.2v-71.6h22.1c4.8,0,8.8-3.9,8.8-8.8s-3.9-8.8-8.8-8.8h-22.1v-37.8h41.9c4.8,0,8.8-3.9,8.8-8.8
		s-3.9-8.8-8.8-8.8h-41.9v-6.3h22.1c4.8,0,8.8-3.9,8.8-8.8c0-4.8-3.9-8.8-8.8-8.8h-22.1v-51.3h22.1c4.8,0,8.8-3.9,8.8-8.8
		c0-4.8-3.9-8.8-8.8-8.8h-22.1v-52.9h11.1c4.8,0,8.8-3.9,8.8-8.8s-3.9-8.8-8.8-8.8h-11.1v-5.2h22.1c4.8,0,8.8-3.9,8.8-8.8
		s-3.9-8.8-8.8-8.8h-22.1v-57h22.1c4.8,0,8.8-3.9,8.8-8.8s-3.9-8.8-8.8-8.8h-22.1V47.6c0-4.6,1.8-9,5.1-12.2
		c3.2-3.2,7.6-5.1,12.2-5.1h45.4c4.6,0,9,1.8,12.2,5.1c3.2,3.2,5.1,7.6,5.1,12.2L473.4,169.3z M512.6,87.3
		C528,72,550,65.2,571.4,69.1c1.9,10.3,1.3,20.9-1.8,31c-28.2-4.8-57,5.3-75.9,26.7C495.3,111.9,502,97.9,512.6,87.3L512.6,87.3z
		 M584.9,239.2L584.9,239.2c-18.8,8-40.3,6.8-58.1-3.3s-29.9-27.8-32.8-48c-0.4-2.5-0.6-4.9-0.7-7.4c5.8-2.4,11.9-4,18.1-4.6
		c8.7-1.1,17.6-0.4,26,2.1h0.1c6,1.7,11.8,4.3,17.1,7.7c2.1,1.3,4.1,2.8,5.9,4.4C575.4,202.1,584.4,220.1,584.9,239.2L584.9,239.2z
		 M562.1,169.8c-8.2-5-17.3-8.5-26.8-10.3c-14-2.8-28.5-2-42.1,2.4c1.7-5.2,4.1-10.2,7.1-14.9c7.7-12.1,19-21.3,32.4-26.4
		c9.4-3.5,19.4-4.8,29.4-3.8c6.1,0.5,12.1,1.9,17.8,4.2c4.9,1.9,9.5,4.4,13.8,7.3C589.4,145.9,577.9,161,562.1,169.8L562.1,169.8z"
		/>
	<g>
		<defs>
			<polyline id="SVGID_1_" points="903.8,691.2 903.8,1391.2 203.8,1391.2 			"/>
		</defs>
		<clipPath id="SVGID_00000090291116758222440120000013884034836771994536_">
			<use xlink:href="#SVGID_1_"  style="overflow:visible;"/>
		</clipPath>
	</g>
	<g>
		<defs>
			<polyline id="SVGID_00000041281938096335547290000015868137678714251189_" points="1055.1,691.2 1055.1,1391.2 355.1,1391.2 			
				"/>
		</defs>
		<clipPath id="SVGID_00000173130469229049703690000001495223260576354961_">
			<use xlink:href="#SVGID_00000041281938096335547290000015868137678714251189_"  style="overflow:visible;"/>
		</clipPath>
	</g>
	<g>
		<defs>
			<polyline id="SVGID_00000017508194430987812340000003947189386845274546_" points="1087.2,691.2 1087.2,1391.2 387.2,1391.2 			
				"/>
		</defs>
		<clipPath id="SVGID_00000046300133458761245590000013563116820446252954_">
			<use xlink:href="#SVGID_00000017508194430987812340000003947189386845274546_"  style="overflow:visible;"/>
		</clipPath>
	</g>
	<g>
		<defs>
			<polyline id="SVGID_00000041999170460661088640000016788946297992882611_" points="1116.9,691.2 1116.9,1391.2 416.9,1391.2 			
				"/>
		</defs>
		<clipPath id="SVGID_00000139251853059648266390000003820548106801868429_">
			<use xlink:href="#SVGID_00000041999170460661088640000016788946297992882611_"  style="overflow:visible;"/>
		</clipPath>
	</g>
	<g>
		<defs>
			<polyline id="SVGID_00000083061706398797560710000014790232707765297029_" points="1153.4,691.2 1153.4,1391.2 453.4,1391.2 			
				"/>
		</defs>
		<clipPath id="SVGID_00000060001546602088809850000007363058321244118419_">
			<use xlink:href="#SVGID_00000083061706398797560710000014790232707765297029_"  style="overflow:visible;"/>
		</clipPath>
	</g>
	<g>
		<defs>
			<polyline id="SVGID_00000111168424641758902750000016397505154017308069_" points="1229.7,691.2 1229.7,1391.2 529.7,1391.2 			
				"/>
		</defs>
		<clipPath id="SVGID_00000086677945844097908990000009368519536378001084_">
			<use xlink:href="#SVGID_00000111168424641758902750000016397505154017308069_"  style="overflow:visible;"/>
		</clipPath>
	</g>
	<g>
		<defs>
			<polyline id="SVGID_00000103967639892209078970000003259354911862068148_" points="1281.8,691.2 1281.8,1391.2 581.8,1391.2 			
				"/>
		</defs>
		<clipPath id="SVGID_00000018233500536346769940000017491958298787786383_">
			<use xlink:href="#SVGID_00000103967639892209078970000003259354911862068148_"  style="overflow:visible;"/>
		</clipPath>
	</g>
	<g>
		<defs>
			<polyline id="SVGID_00000152960172389282729240000006424339609419713955_" points="1313.1,691.2 1313.1,1391.2 613.1,1391.2 			
				"/>
		</defs>
		<clipPath id="SVGID_00000000205367406762823720000014552668888858759865_">
			<use xlink:href="#SVGID_00000152960172389282729240000006424339609419713955_"  style="overflow:visible;"/>
		</clipPath>
	</g>
</g>
</svg>
