<?xml version="1.0" encoding="utf-8"?>
<!-- Generator: Adobe Illustrator 25.4.1, SVG Export Plug-In . SVG Version: 6.00 Build 0)  -->
<svg version="1.1" id="Calque_1" xmlns="http://www.w3.org/2000/svg" xmlns:xlink="http://www.w3.org/1999/xlink" x="0px" y="0px"
	 viewBox="0 0 700 700" style="enable-background:new 0 0 700 700;" xml:space="preserve">
<g>
	<path d="M618,406.5c-1.7-14.6-13.4-42.6-46-47.1c-4-7.3-14.8-22.9-35-22.9c-4.7,0-9.3,0.9-13.6,2.7c-7.1,2.7-13.4,7.3-17.9,13.5
		c-12.2-3.8-31.3-3.9-44.5,14.6c-6.9-1.7-18.9-2.4-30.6,8.4h0c-1.5,1.4-3,3-4.3,4.6c-3.9,4.8-18.2,20.4-35.8,20.4H263.4
		c-3.2-0.5-24.2-4.3-39.5-14.6h0c-2.5-1.8-4.9-3.8-7.1-6c-5.9-5.9-26.5-23-54.7-9.4c-3.1-5.1-7.4-9.5-12.4-12.8
		c-13.3-8.5-30.4-7.3-43.8,3.1c-20.5,16.1-27.7,43.6-28,44.7c0,0,0,0.1,0,0.1v0c-0.1,0.3-0.1,0.7-0.1,1c0,0.1,0,0.3,0,0.4v0.1h0
		c0,0.4,0,0.9,0.1,1.3c0,0,0,0,0,0c0.1,0.4,0.2,0.9,0.4,1.3c0.1,0.1,0.1,0.2,0.2,0.4c0.2,0.3,0.3,0.6,0.5,0.8c0,0.1,0.1,0.1,0.1,0.2
		c0.1,0.1,0.2,0.1,0.2,0.2h0c0.2,0.2,0.4,0.4,0.6,0.6c0.1,0.1,0.3,0.2,0.4,0.3c0.2,0.2,0.5,0.3,0.8,0.5c0.1,0.1,0.3,0.2,0.4,0.2
		c0.3,0.1,0.6,0.2,0.9,0.3c0.1,0,0.2,0.1,0.4,0.1h0c0.5,0.1,0.9,0.2,1.4,0.2h527.1c0.5,0,0.9-0.1,1.4-0.1c0.1,0,0.2-0.1,0.3-0.1
		c0.3-0.1,0.7-0.2,1-0.3c0.1-0.1,0.3-0.1,0.4-0.2c0.3-0.1,0.5-0.3,0.8-0.4c0.1-0.1,0.3-0.2,0.4-0.3c0.2-0.2,0.4-0.3,0.6-0.5
		c0,0,0.1-0.1,0.1-0.1c0.1-0.1,0.1-0.2,0.2-0.3h0c0.2-0.2,0.3-0.4,0.5-0.6c0.1-0.2,0.2-0.3,0.3-0.5c0.1-0.2,0.2-0.5,0.3-0.7
		c0.1-0.2,0.1-0.4,0.2-0.6h0c0.1-0.2,0.1-0.5,0.1-0.7c0-0.2,0.1-0.4,0.1-0.6c0-0.1,0-0.2,0-0.3s0-0.3,0-0.4S618,406.6,618,406.5
		L618,406.5z M93.6,400.7c3.3-8.3,9.8-21,20.5-29.4c9-7,19.9-7.9,28.5-2.4c4.9,3.3,8.6,7.9,10.8,13.4c0.8,1.7,2.3,3.1,4.1,3.6
		s3.8,0.3,5.4-0.7c22.4-13.9,38.7-1.7,44.6,4.2c2.7,2.8,5.7,5.3,9,7.6c2,1.3,4,2.6,6,3.7L93.6,400.7z M424,400.7
		c4.5-3.6,8.6-7.6,12.3-12.1c0.9-1.2,1.9-2.3,3-3.3c10.4-9.5,20.3-4.9,21.4-4.4c3.2,1.7,7.1,0.6,8.9-2.5
		c12.7-22.4,33.6-12.8,35.9-11.7c1.6,0.8,3.5,0.9,5.2,0.3c1.7-0.6,3.1-1.9,3.8-3.5c3-6.7,9.2-10.3,13.9-12.1h0
		c2.8-1.1,5.7-1.7,8.7-1.7h0c16.9,0,24.3,17.6,24.6,18.4c0.9,2.3,3.1,3.9,5.6,4.1c23.7,1.9,32.7,18.6,36,28.6L424,400.7z"/>
	<path d="M304,299.2c-6.4-0.5-12.4-2.8-17.6-6.6c-4.7-3.3-10.1-5.5-15.8-6.5c-3.6-0.6-7,1.8-7.6,5.4c-0.6,3.6,1.8,7,5.4,7.6
		c3.7,0.6,7.2,2,10.3,4.2c7.1,5.2,15.5,8.3,24.3,9c1.2,0.1,2.3,0.1,3.5,0.1h0c2.4,0,4.8-0.2,7.2-0.6c0.9,5.7,1.8,11.4,2.9,16.8v0
		c0.6,3.1,3.3,5.4,6.5,5.4c0.4,0,0.8,0,1.2-0.1c3.6-0.7,5.9-4.1,5.2-7.7c-5.3-27.6-8.6-63.3-8.6-63.6c-0.3-3.6-3.5-6.3-7.2-6
		c-3.6,0.3-6.3,3.5-5.9,7.2c0,0.2,1.5,16.1,4.1,35C309.2,299.2,306.6,299.4,304,299.2L304,299.2z"/>
	<path d="M378.1,291.6c-3.4-0.6-6.7-1.8-9.7-3.4c-9-4.9-19.8-5.7-29.4-2.1c-3.4,1.3-5.2,5-3.9,8.5c1.3,3.4,5,5.2,8.5,3.9
		c6.1-2.3,12.8-1.8,18.5,1.2c4.3,2.3,8.9,3.9,13.6,4.8c8.9,1.7,18.1,0.2,26-4.3c11.6-6.8,25.5-8.4,38.3-4.5
		c5.1,4.3,31.8,26.2,60.2,45c3,1.9,7.1,1.1,9-1.9c2-3,1.2-7-1.8-9.1c-29.6-19.5-57.3-42.6-59.7-44.6c-34.9-34.1-72.2-76.1-86.6-92.6
		c-4.6-5.2-11.2-8.3-18.2-8.3h-46.8c-7.4,0-14.4,3.4-19,9.2c-26.3,33.6-68.4,73.5-68.8,73.9c0,0-0.1,0.1-0.1,0.1s-0.1,0-0.1,0.1
		c-19.2,19.6-50.2,47.6-72.8,67.6c-2.7,2.4-3,6.6-0.6,9.3c2.4,2.7,6.6,3,9.3,0.6c22-19.5,51.8-46.4,71.3-66.1c3,0.2,5.9,1.5,8,3.7
		c3.4,3.6,4.4,8.9,4.7,12c-5.4,6.6-10.7,13-15.3,18.4v0c-2.4,2.8-2.1,6.9,0.7,9.3c2.8,2.4,6.9,2,9.3-0.7c4.6-5.4,10-11.8,15.4-18.5
		c1.2-0.8,2.2-1.9,2.7-3.3c16.3-20.1,32.6-41,32.8-41.3h0c2.2-2.9,1.7-7-1.2-9.2c-2.9-2.2-7-1.7-9.2,1.2c-0.2,0.2-11.7,15-25,31.6
		c-1.3-3.1-3.2-5.9-5.5-8.4c-2-2.1-4.3-3.8-6.8-5c14-13.7,41.5-41.6,61.3-66.9c2.1-2.7,5.3-4.2,8.6-4.2H343c3.2,0,6.2,1.4,8.3,3.8
		c12.6,14.4,42.6,48.2,73.3,79.4h0c-10.3,0.3-20.4,3.1-29.4,8.3C390,291.7,383.9,292.7,378.1,291.6L378.1,291.6z"/>
	<path d="M84.4,191.5h153.7c3.6,0,6.6-2.9,6.6-6.6c0-3.6-2.9-6.6-6.6-6.6c-8.7,0.1-17.2-2.9-24-8.5c-13.4-16.2-27-21.1-34.4-22.6
		l0,0c-1-4.5-2.7-8.9-4.9-13c-3.2-6-8.1-10.9-14.2-14.1c-6-3.1-12.9-4.3-19.7-3.4c-6.3,0.7-12.3,3.1-17.4,7.1s-8.8,9.2-11,15.2
		c-28.2,6.2-35.2,32.5-34.9,46.2v0C77.9,188.7,80.9,191.5,84.4,191.5L84.4,191.5z M118.8,151.2c2.8-0.4,5-2.5,5.6-5.2
		c0-0.1,0.1-0.3,0.2-0.7c1.1-4.1,3.4-7.8,6.6-10.6c3.2-2.8,7.2-4.5,11.5-4.9c4.1-0.6,8.3,0.2,12,2.1c3.7,1.9,6.7,4.9,8.7,8.6
		c2.2,4.3,3.7,8.9,4.4,13.7c0.5,3.3,3.3,5.7,6.6,5.6c0.6,0,14.6,0.3,29.8,18.6H91.6C93.2,169.4,98.8,154,118.8,151.2L118.8,151.2z"
		/>
	<path d="M618.3,209.9c-0.2-0.1-17.1-7.7-27.6-16.5c-4.8-8.4-16.4-21.1-32.1-20.7c-0.4-1.3-0.9-2.7-1.5-4.2h0
		c-3.5-8.7-10.5-15.6-19.2-18.9c-9.2-35.6-34.2-64.9-68-79.5s-72.3-12.8-104.5,5c-32.2,17.7-54.4,49.3-60.1,85.6
		c-0.3,1.7,0.2,3.5,1.2,4.9c1,1.4,2.6,2.4,4.3,2.6c0.3,0.1,0.7,0.1,1,0.1c3.2,0,6-2.4,6.5-5.6c3.8-24.9,16.5-47.6,35.6-64
		c19.2-16.4,43.6-25.3,68.8-25.2c22.5,0.1,44.3,7.3,62.4,20.6c18.1,13.3,31.6,32,38.4,53.3c-6.3,0.3-12.4,2.4-17.6,6
		c-5.2,3.6-9.2,8.6-11.7,14.5c-6.1,2-17.4,7.7-20.2,22.3c-0.8,4.6-3,8.8-6.3,12c-4.1,3.7-9.2,6.1-14.6,7.1c-3.3,0.6-5.6,3.7-5.3,7.1
		c0.3,3.4,3.2,6,6.6,6h64.8c-9.4,21.1-25.5,38.4-45.7,49.5c-1.6,0.8-2.7,2.2-3.2,3.9c-0.5,1.7-0.3,3.5,0.5,5c0.8,1.5,2.3,2.7,4,3.2
		c1.7,0.5,3.5,0.3,5-0.6c24.5-13.4,43.5-35.1,53.6-61.1h82.2h0c3.1,0,5.8-2.2,6.4-5.2C622.7,214.2,621.1,211.1,618.3,209.9
		L618.3,209.9z M479.2,209.3c3.9-4.7,6.6-10.4,7.7-16.5c2.1-10.7,12.9-12.8,13.3-12.8c2.5-0.4,4.5-2.2,5.3-4.6l0.2-0.5
		c1.8-5.4,5.8-9.9,10.9-12.3c5.2-2.4,11.1-2.7,16.5-0.6c5.3,2.1,9.6,6.2,11.8,11.5c1,2.4,1.7,4.8,2,7.3c0.2,1.9,1.2,3.6,2.8,4.7
		c1.6,1.1,3.5,1.4,5.4,1c14.8-3.8,24.2,13.5,24.6,14.2c0.4,0.7,0.9,1.4,1.5,1.9c2.8,2.4,5.8,4.6,8.9,6.7L479.2,209.3z"/>
	<path d="M611.5,439.5h-87.2c-3.6,0-6.6,2.9-6.6,6.6c0,3.6,3,6.6,6.6,6.6h87.2c3.6,0,6.6-2.9,6.6-6.6
		C618.1,442.4,615.1,439.5,611.5,439.5z"/>
	<path d="M487.5,452.6c3.6,0,6.6-2.9,6.6-6.6c0-3.6-2.9-6.6-6.6-6.6h-4.3c-3.6,0-6.6,2.9-6.6,6.6c0,3.6,2.9,6.6,6.6,6.6H487.5z"/>
	<path d="M443.7,446c0-1.8-0.7-3.4-1.9-4.7c-1.2-1.2-2.9-1.9-4.7-1.9h-149c-3.6,0-6.6,2.9-6.6,6.6c0,3.6,2.9,6.6,6.6,6.6h149
		C440.7,452.6,443.7,449.7,443.7,446L443.7,446z"/>
	<path d="M248.8,452.6c3.6,0,6.6-2.9,6.6-6.6c0-3.6-2.9-6.6-6.6-6.6h-3.2c-3.6,0-6.6,2.9-6.6,6.6c0,3.6,2.9,6.6,6.6,6.6H248.8z"/>
	<path d="M203.2,439.5H84.4c-3.6,0-6.6,2.9-6.6,6.6c0,3.6,2.9,6.6,6.6,6.6h118.8h0c3.6,0,6.6-2.9,6.6-6.6
		C209.8,442.4,206.8,439.5,203.2,439.5L203.2,439.5z"/>
	<path d="M611.5,486.5H443.3c-3.6,0-6.6,2.9-6.6,6.6c0,3.6,2.9,6.6,6.6,6.6h168.1c3.6,0,6.6-2.9,6.6-6.6
		C618.1,489.4,615.1,486.5,611.5,486.5z"/>
	<path d="M404.2,486.5c-3.6,0-6.6,2.9-6.6,6.6c0,3.6,2.9,6.6,6.6,6.6h2.7c3.6,0,6.6-2.9,6.6-6.6c0-3.6-2.9-6.6-6.6-6.6H404.2z"/>
	<path d="M189.7,493c0,1.8,0.7,3.4,1.9,4.7c1.2,1.2,2.9,1.9,4.7,1.9h168.9c3.6,0,6.6-2.9,6.6-6.6c0-3.6-2.9-6.6-6.6-6.6H196.3
		C192.6,486.5,189.7,489.4,189.7,493L189.7,493z"/>
	<path d="M146.4,493c0-1.7-0.7-3.4-1.9-4.7c-1.2-1.2-2.9-1.9-4.7-1.9H84.4c-3.6,0-6.6,2.9-6.6,6.6c0,3.6,2.9,6.6,6.6,6.6h55.4
		c1.7,0,3.4-0.7,4.7-1.9C145.8,496.5,146.4,494.8,146.4,493L146.4,493z"/>
	<g>
		<defs>
			<polyline id="SVGID_1_" points="795.2,584.7 795.2,1284.7 95.2,1284.7 			"/>
		</defs>
		<clipPath id="SVGID_00000114073361857870987650000004817072314213184416_">
			<use xlink:href="#SVGID_1_"  style="overflow:visible;"/>
		</clipPath>
	</g>
	<g>
		<defs>
			<polyline id="SVGID_00000084529104025034595860000017939907278717888406_" points="831.9,584.7 831.9,1284.7 131.9,1284.7 			"/>
		</defs>
		<clipPath id="SVGID_00000090292680675981719120000003915887972470024360_">
			<use xlink:href="#SVGID_00000084529104025034595860000017939907278717888406_"  style="overflow:visible;"/>
		</clipPath>
	</g>
	<g>
		<defs>
			<polyline id="SVGID_00000155860795432947743600000018339739169255778714_" points="773.6,592.9 773.6,1292.9 73.6,1292.9 			"/>
		</defs>
		<clipPath id="SVGID_00000023989444154860992770000015812169401700503945_">
			<use xlink:href="#SVGID_00000155860795432947743600000018339739169255778714_"  style="overflow:visible;"/>
		</clipPath>
	</g>
	<g>
		<defs>
			<polyline id="SVGID_00000113320304635107586620000011520569910410990739_" points="777.6,592.9 777.6,1292.9 77.6,1292.9 			"/>
		</defs>
		<clipPath id="SVGID_00000142143905917628954620000000569548406077150137_">
			<use xlink:href="#SVGID_00000113320304635107586620000011520569910410990739_"  style="overflow:visible;"/>
		</clipPath>
	</g>
	<g>
		<defs>
			<polyline id="SVGID_00000017481613053088096590000009534046947649473467_" points="794.8,592.9 794.8,1292.9 94.8,1292.9 			"/>
		</defs>
		<clipPath id="SVGID_00000003067028033665515810000005272617730438197409_">
			<use xlink:href="#SVGID_00000017481613053088096590000009534046947649473467_"  style="overflow:visible;"/>
		</clipPath>
	</g>
	<g>
		<defs>
			<polyline id="SVGID_00000129890589847874264130000006427545063864628146_" points="804.6,592.9 804.6,1292.9 104.6,1292.9 			"/>
		</defs>
		<clipPath id="SVGID_00000142169461549876386640000016384854656965008789_">
			<use xlink:href="#SVGID_00000129890589847874264130000006427545063864628146_"  style="overflow:visible;"/>
		</clipPath>
	</g>
	<g>
		<defs>
			<polyline id="SVGID_00000167370982083372177500000005120164879677970315_" points="819.9,592.9 819.9,1292.9 119.9,1292.9 			"/>
		</defs>
		<clipPath id="SVGID_00000130625791609413524140000017497916647796929437_">
			<use xlink:href="#SVGID_00000167370982083372177500000005120164879677970315_"  style="overflow:visible;"/>
		</clipPath>
	</g>
	<g>
		<defs>
			<polyline id="SVGID_00000023987494158806333200000010299211726970670738_" points="831.4,592.9 831.4,1292.9 131.4,1292.9 			"/>
		</defs>
		<clipPath id="SVGID_00000145780271027844309300000016296555772348448899_">
			<use xlink:href="#SVGID_00000023987494158806333200000010299211726970670738_"  style="overflow:visible;"/>
		</clipPath>
	</g>
	<g>
		<defs>
			<polyline id="SVGID_00000066506394598744640460000008400551943826406839_" points="846.2,592.9 846.2,1292.9 146.2,1292.9 			"/>
		</defs>
		<clipPath id="SVGID_00000168824884498827869740000005347897138697143435_">
			<use xlink:href="#SVGID_00000066506394598744640460000008400551943826406839_"  style="overflow:visible;"/>
		</clipPath>
	</g>
	<g>
		<defs>
			<polyline id="SVGID_00000141453314365152793350000011315190917150554775_" points="850.2,592.9 850.2,1292.9 150.2,1292.9 			"/>
		</defs>
		<clipPath id="SVGID_00000160190333221623301310000014515497710888388772_">
			<use xlink:href="#SVGID_00000141453314365152793350000011315190917150554775_"  style="overflow:visible;"/>
		</clipPath>
	</g>
	<g>
		<defs>
			<polyline id="SVGID_00000116211941968023638030000006055784344401083017_" points="858.7,592.9 858.7,1292.9 158.7,1292.9 			"/>
		</defs>
		<clipPath id="SVGID_00000039839168101078016460000003518166016003534262_">
			<use xlink:href="#SVGID_00000116211941968023638030000006055784344401083017_"  style="overflow:visible;"/>
		</clipPath>
	</g>
	<g>
		<defs>
			<polyline id="SVGID_00000067917174861494995160000017221590416178255765_" points="864.3,592.9 864.3,1292.9 164.3,1292.9 			"/>
		</defs>
		<clipPath id="SVGID_00000152964355976717412880000014232408607482188982_">
			<use xlink:href="#SVGID_00000067917174861494995160000017221590416178255765_"  style="overflow:visible;"/>
		</clipPath>
	</g>
	<g>
		<defs>
			<polyline id="SVGID_00000004521308125715725660000000010528147452347839_" points="869.2,592.9 869.2,1292.9 169.2,1292.9 			"/>
		</defs>
		<clipPath id="SVGID_00000129903813291841098200000008577541746296491676_">
			<use xlink:href="#SVGID_00000004521308125715725660000000010528147452347839_"  style="overflow:visible;"/>
		</clipPath>
	</g>
</g>
</svg>
